<?xml version="1.0" encoding="UTF-8"?>
<svg id="Warstwa_1" xmlns="http://www.w3.org/2000/svg" version="1.1" viewBox="0 0 250 250">
  <!-- Generator: Adobe Illustrator 29.2.1, SVG Export Plug-In . SVG Version: 2.1.0 Build 116)  -->
  <defs>
    <style>
      .st0 {
        fill: #5662f6;
      }

      .st1 {
        fill: #fff;
      }
    </style>
  </defs>
  <rect class="st0" x="0" y="0" width="250" height="250"/>
  <g>
    <rect class="st1" x="33.13" y="74.56" width="15.63" height="100.75"/>
    <polygon class="st1" points="119.94 175.44 100.34 175.44 75.41 130.37 92.43 128.32 119.94 175.44"/>
    <g>
      <path class="st1" d="M84.15,133.8h-50.02v-58.24h50.02c16.06,0,29.12,13.06,29.12,29.12s-13.06,29.12-29.12,29.12ZM44.76,123.17h39.39c10.2,0,18.49-8.3,18.49-18.49s-8.3-18.49-18.49-18.49h-39.39v36.98Z"/>
      <path class="st1" d="M84.15,134.8h-51.02v-60.24h51.02c16.61,0,30.12,13.51,30.12,30.12s-13.51,30.12-30.12,30.12ZM35.13,132.8h49.02c15.51,0,28.12-12.61,28.12-28.12s-12.61-28.12-28.12-28.12h-49.02v56.24ZM84.15,124.17h-40.39v-38.98h40.39c10.75,0,19.49,8.74,19.49,19.49s-8.74,19.49-19.49,19.49ZM45.76,122.17h38.39c9.65,0,17.49-7.85,17.49-17.49s-7.85-17.49-17.49-17.49h-38.39v34.98Z"/>
    </g>
    <path class="st1" d="M160.75,175.44h-25.66v-100.89h25.66c30.95,0,56.12,21.94,56.12,48.92v3.05c0,26.97-25.18,48.92-56.12,48.92ZM150.09,162.37h10.66c22.68,0,41.12-16.08,41.12-35.84v-3.05c0-19.76-18.45-35.84-41.12-35.84h-10.66v74.74Z"/>
  </g>
</svg>